<mxfile host="app.diagrams.net" agent="Mozilla/5.0 (Windows NT 10.0; Win64; x64) AppleWebKit/537.36 (KHTML, like Gecko) Chrome/132.0.0.0 Safari/537.36 OPR/117.0.0.0" version="26.1.1">
  <diagram name="PÃ¡gina-1" id="BvhR5NLxnVFiCseQWA7m">
    <mxGraphModel dx="2304" dy="1462" grid="1" gridSize="10" guides="1" tooltips="1" connect="1" arrows="1" fold="1" page="1" pageScale="1" pageWidth="6000" pageHeight="5300" math="0" shadow="0">
      <root>
        <mxCell id="0" />
        <mxCell id="1" parent="0" />
        <mxCell id="2INb_UAs3qM7dpsiriRV-17" style="rounded=0;orthogonalLoop=1;jettySize=auto;html=1;exitX=1;exitY=0.5;exitDx=0;exitDy=0;endArrow=ERoneToMany;endFill=0;startArrow=ERone;startFill=0;" edge="1" parent="1" source="2INb_UAs3qM7dpsiriRV-4" target="2INb_UAs3qM7dpsiriRV-18">
          <mxGeometry relative="1" as="geometry" />
        </mxCell>
        <mxCell id="2INb_UAs3qM7dpsiriRV-4" value="eco_reg_reg" style="ellipse;whiteSpace=wrap;html=1;" vertex="1" parent="1">
          <mxGeometry x="730" y="315" width="120" height="60" as="geometry" />
        </mxCell>
        <mxCell id="2INb_UAs3qM7dpsiriRV-5" value="eco_reg_trazabilidad" style="ellipse;whiteSpace=wrap;html=1;" vertex="1" parent="1">
          <mxGeometry x="730" y="500" width="120" height="60" as="geometry" />
        </mxCell>
        <mxCell id="2INb_UAs3qM7dpsiriRV-6" value="eco_bas_comite" style="ellipse;whiteSpace=wrap;html=1;" vertex="1" parent="1">
          <mxGeometry x="1220" y="315" width="120" height="60" as="geometry" />
        </mxCell>
        <mxCell id="2INb_UAs3qM7dpsiriRV-7" value="eco_cerrem_sesion" style="ellipse;whiteSpace=wrap;html=1;" vertex="1" parent="1">
          <mxGeometry x="980" y="670" width="120" height="60" as="geometry" />
        </mxCell>
        <mxCell id="2INb_UAs3qM7dpsiriRV-9" value="eco_cerrem_agenda" style="ellipse;whiteSpace=wrap;html=1;" vertex="1" parent="1">
          <mxGeometry x="980" y="810" width="120" height="60" as="geometry" />
        </mxCell>
        <mxCell id="2INb_UAs3qM7dpsiriRV-10" value="eco_cerrem_reunion" style="ellipse;whiteSpace=wrap;html=1;" vertex="1" parent="1">
          <mxGeometry x="1300" y="670" width="120" height="60" as="geometry" />
        </mxCell>
        <mxCell id="2INb_UAs3qM7dpsiriRV-11" value="eco_cerrem_asistente" style="ellipse;whiteSpace=wrap;html=1;" vertex="1" parent="1">
          <mxGeometry x="1510" y="670" width="140" height="60" as="geometry" />
        </mxCell>
        <mxCell id="2INb_UAs3qM7dpsiriRV-12" value="eco_cerrem_voto" style="ellipse;whiteSpace=wrap;html=1;" vertex="1" parent="1">
          <mxGeometry x="1520" y="810" width="120" height="60" as="geometry" />
        </mxCell>
        <mxCell id="2INb_UAs3qM7dpsiriRV-13" value="eco_ctar_medida" style="ellipse;whiteSpace=wrap;html=1;" vertex="1" parent="1">
          <mxGeometry x="1680" y="500" width="120" height="60" as="geometry" />
        </mxCell>
        <mxCell id="2INb_UAs3qM7dpsiriRV-14" value="eco_cerrem_ingresomedidas" style="ellipse;whiteSpace=wrap;html=1;" vertex="1" parent="1">
          <mxGeometry x="1375" y="500" width="180" height="60" as="geometry" />
        </mxCell>
        <mxCell id="2INb_UAs3qM7dpsiriRV-15" value="eco_cerrem_devolucionregistro" style="ellipse;whiteSpace=wrap;html=1;" vertex="1" parent="1">
          <mxGeometry x="400" y="500" width="200" height="60" as="geometry" />
        </mxCell>
        <mxCell id="2INb_UAs3qM7dpsiriRV-16" value="eco_cerrem_ponderacionexterno" style="ellipse;whiteSpace=wrap;html=1;" vertex="1" parent="1">
          <mxGeometry x="140" y="315" width="190" height="60" as="geometry" />
        </mxCell>
        <mxCell id="2INb_UAs3qM7dpsiriRV-18" value="eco_reg_comitereg" style="ellipse;whiteSpace=wrap;html=1;" vertex="1" parent="1">
          <mxGeometry x="980" y="315" width="120" height="60" as="geometry" />
        </mxCell>
        <mxCell id="2INb_UAs3qM7dpsiriRV-19" style="rounded=0;orthogonalLoop=1;jettySize=auto;html=1;endArrow=ERone;endFill=0;startArrow=ERoneToMany;startFill=0;" edge="1" parent="1" source="2INb_UAs3qM7dpsiriRV-18" target="2INb_UAs3qM7dpsiriRV-6">
          <mxGeometry relative="1" as="geometry">
            <mxPoint x="1100" y="450" as="sourcePoint" />
            <mxPoint x="1230" y="450" as="targetPoint" />
          </mxGeometry>
        </mxCell>
        <mxCell id="2INb_UAs3qM7dpsiriRV-21" style="rounded=0;orthogonalLoop=1;jettySize=auto;html=1;endArrow=ERoneToMany;endFill=0;startArrow=ERone;startFill=0;" edge="1" parent="1" source="2INb_UAs3qM7dpsiriRV-4" target="2INb_UAs3qM7dpsiriRV-5">
          <mxGeometry relative="1" as="geometry">
            <mxPoint x="820" y="420" as="sourcePoint" />
            <mxPoint x="950" y="420" as="targetPoint" />
          </mxGeometry>
        </mxCell>
        <mxCell id="2INb_UAs3qM7dpsiriRV-22" style="rounded=0;orthogonalLoop=1;jettySize=auto;html=1;endArrow=ERoneToMany;endFill=0;startArrow=ERone;startFill=0;" edge="1" parent="1" source="2INb_UAs3qM7dpsiriRV-4" target="2INb_UAs3qM7dpsiriRV-45">
          <mxGeometry relative="1" as="geometry">
            <mxPoint x="910" y="375" as="sourcePoint" />
            <mxPoint x="1030" y="460" as="targetPoint" />
          </mxGeometry>
        </mxCell>
        <mxCell id="2INb_UAs3qM7dpsiriRV-24" value="eco_sis_ot" style="ellipse;whiteSpace=wrap;html=1;" vertex="1" parent="1">
          <mxGeometry x="730" y="180" width="120" height="60" as="geometry" />
        </mxCell>
        <mxCell id="2INb_UAs3qM7dpsiriRV-25" style="rounded=0;orthogonalLoop=1;jettySize=auto;html=1;endArrow=ERone;endFill=0;startArrow=ERone;startFill=0;" edge="1" parent="1" source="2INb_UAs3qM7dpsiriRV-24" target="2INb_UAs3qM7dpsiriRV-4">
          <mxGeometry relative="1" as="geometry">
            <mxPoint x="530" y="270" as="sourcePoint" />
            <mxPoint x="712" y="405" as="targetPoint" />
          </mxGeometry>
        </mxCell>
        <mxCell id="2INb_UAs3qM7dpsiriRV-26" value="eco_cerrem_complemento" style="ellipse;whiteSpace=wrap;html=1;" vertex="1" parent="1">
          <mxGeometry x="945" y="180" width="190" height="60" as="geometry" />
        </mxCell>
        <mxCell id="2INb_UAs3qM7dpsiriRV-27" style="rounded=0;orthogonalLoop=1;jettySize=auto;html=1;endArrow=ERone;endFill=0;startArrow=ERone;startFill=0;" edge="1" parent="1" source="2INb_UAs3qM7dpsiriRV-24" target="2INb_UAs3qM7dpsiriRV-26">
          <mxGeometry relative="1" as="geometry">
            <mxPoint x="860" y="355" as="sourcePoint" />
            <mxPoint x="990" y="355" as="targetPoint" />
          </mxGeometry>
        </mxCell>
        <mxCell id="2INb_UAs3qM7dpsiriRV-28" style="rounded=0;orthogonalLoop=1;jettySize=auto;html=1;endArrow=ERone;endFill=0;startArrow=ERone;startFill=0;" edge="1" parent="1" source="2INb_UAs3qM7dpsiriRV-7" target="2INb_UAs3qM7dpsiriRV-10">
          <mxGeometry relative="1" as="geometry">
            <mxPoint x="1120" y="460" as="sourcePoint" />
            <mxPoint x="1140" y="665" as="targetPoint" />
          </mxGeometry>
        </mxCell>
        <mxCell id="2INb_UAs3qM7dpsiriRV-29" style="rounded=0;orthogonalLoop=1;jettySize=auto;html=1;endArrow=ERoneToMany;endFill=0;startArrow=ERone;startFill=0;" edge="1" parent="1" source="2INb_UAs3qM7dpsiriRV-7" target="2INb_UAs3qM7dpsiriRV-9">
          <mxGeometry relative="1" as="geometry">
            <mxPoint x="850" y="712.5" as="sourcePoint" />
            <mxPoint x="1032" y="847.5" as="targetPoint" />
          </mxGeometry>
        </mxCell>
        <mxCell id="2INb_UAs3qM7dpsiriRV-30" value="&lt;div&gt;eco_usr_usuario&lt;/div&gt;&lt;div&gt;(moderador)&lt;/div&gt;" style="ellipse;whiteSpace=wrap;html=1;" vertex="1" parent="1">
          <mxGeometry x="1300" y="810" width="120" height="60" as="geometry" />
        </mxCell>
        <mxCell id="2INb_UAs3qM7dpsiriRV-32" style="rounded=0;orthogonalLoop=1;jettySize=auto;html=1;endArrow=ERone;endFill=0;startArrow=ERone;startFill=0;" edge="1" parent="1" source="2INb_UAs3qM7dpsiriRV-10" target="2INb_UAs3qM7dpsiriRV-30">
          <mxGeometry relative="1" as="geometry">
            <mxPoint x="1350" y="770" as="sourcePoint" />
            <mxPoint x="1470" y="770" as="targetPoint" />
          </mxGeometry>
        </mxCell>
        <mxCell id="2INb_UAs3qM7dpsiriRV-34" style="rounded=0;orthogonalLoop=1;jettySize=auto;html=1;endArrow=ERoneToMany;endFill=0;startArrow=ERone;startFill=0;" edge="1" parent="1" source="2INb_UAs3qM7dpsiriRV-10" target="2INb_UAs3qM7dpsiriRV-11">
          <mxGeometry relative="1" as="geometry">
            <mxPoint x="1468" y="730" as="sourcePoint" />
            <mxPoint x="1650" y="865" as="targetPoint" />
          </mxGeometry>
        </mxCell>
        <mxCell id="2INb_UAs3qM7dpsiriRV-35" style="rounded=0;orthogonalLoop=1;jettySize=auto;html=1;endArrow=ERone;endFill=0;startArrow=ERone;startFill=0;" edge="1" parent="1" source="2INb_UAs3qM7dpsiriRV-11" target="2INb_UAs3qM7dpsiriRV-12">
          <mxGeometry relative="1" as="geometry">
            <mxPoint x="1370" y="740" as="sourcePoint" />
            <mxPoint x="1370" y="820" as="targetPoint" />
          </mxGeometry>
        </mxCell>
        <mxCell id="2INb_UAs3qM7dpsiriRV-36" value="&lt;div&gt;eco_usr_usuario&lt;/div&gt;&lt;div&gt;(el que las pone)&lt;/div&gt;" style="ellipse;whiteSpace=wrap;html=1;" vertex="1" parent="1">
          <mxGeometry x="1405" y="315" width="120" height="60" as="geometry" />
        </mxCell>
        <mxCell id="2INb_UAs3qM7dpsiriRV-37" style="rounded=0;orthogonalLoop=1;jettySize=auto;html=1;endArrow=ERone;endFill=0;startArrow=ERone;startFill=0;" edge="1" parent="1" source="2INb_UAs3qM7dpsiriRV-10" target="2INb_UAs3qM7dpsiriRV-14">
          <mxGeometry relative="1" as="geometry">
            <mxPoint x="1360" y="480" as="sourcePoint" />
            <mxPoint x="1450" y="480" as="targetPoint" />
          </mxGeometry>
        </mxCell>
        <mxCell id="2INb_UAs3qM7dpsiriRV-38" style="rounded=0;orthogonalLoop=1;jettySize=auto;html=1;endArrow=ERoneToMany;endFill=0;startArrow=ERone;startFill=0;" edge="1" parent="1" source="2INb_UAs3qM7dpsiriRV-14" target="2INb_UAs3qM7dpsiriRV-13">
          <mxGeometry relative="1" as="geometry">
            <mxPoint x="1585" y="658" as="sourcePoint" />
            <mxPoint x="1711" y="529" as="targetPoint" />
          </mxGeometry>
        </mxCell>
        <mxCell id="2INb_UAs3qM7dpsiriRV-39" style="rounded=0;orthogonalLoop=1;jettySize=auto;html=1;endArrow=ERone;endFill=0;startArrow=ERone;startFill=0;" edge="1" parent="1" source="2INb_UAs3qM7dpsiriRV-14" target="2INb_UAs3qM7dpsiriRV-36">
          <mxGeometry relative="1" as="geometry">
            <mxPoint x="1575" y="435" as="sourcePoint" />
            <mxPoint x="1685" y="435" as="targetPoint" />
          </mxGeometry>
        </mxCell>
        <mxCell id="2INb_UAs3qM7dpsiriRV-41" value="eco_cerrem_formularioexterno" style="ellipse;whiteSpace=wrap;html=1;" vertex="1" parent="1">
          <mxGeometry x="415" y="315" width="170" height="60" as="geometry" />
        </mxCell>
        <mxCell id="2INb_UAs3qM7dpsiriRV-45" value="eco_cerrem_sesionregistro" style="ellipse;whiteSpace=wrap;html=1;" vertex="1" parent="1">
          <mxGeometry x="950" y="500" width="180" height="60" as="geometry" />
        </mxCell>
        <mxCell id="2INb_UAs3qM7dpsiriRV-46" style="rounded=0;orthogonalLoop=1;jettySize=auto;html=1;endArrow=ERone;endFill=0;startArrow=ERone;startFill=0;" edge="1" parent="1" source="2INb_UAs3qM7dpsiriRV-45" target="2INb_UAs3qM7dpsiriRV-7">
          <mxGeometry relative="1" as="geometry">
            <mxPoint x="1010" y="610" as="sourcePoint" />
            <mxPoint x="1210" y="610" as="targetPoint" />
          </mxGeometry>
        </mxCell>
        <mxCell id="2INb_UAs3qM7dpsiriRV-47" value="eco_sis_datosbasicospersona" style="ellipse;whiteSpace=wrap;html=1;" vertex="1" parent="1">
          <mxGeometry x="170" y="180" width="200" height="60" as="geometry" />
        </mxCell>
        <mxCell id="2INb_UAs3qM7dpsiriRV-49" style="rounded=0;orthogonalLoop=1;jettySize=auto;html=1;endArrow=ERone;endFill=0;startArrow=ERone;startFill=0;" edge="1" parent="1" source="2INb_UAs3qM7dpsiriRV-41" target="2INb_UAs3qM7dpsiriRV-47">
          <mxGeometry relative="1" as="geometry">
            <mxPoint x="390" y="380" as="sourcePoint" />
            <mxPoint x="390" y="455" as="targetPoint" />
          </mxGeometry>
        </mxCell>
        <mxCell id="2INb_UAs3qM7dpsiriRV-50" style="rounded=0;orthogonalLoop=1;jettySize=auto;html=1;endArrow=ERone;endFill=0;startArrow=ERone;startFill=0;" edge="1" parent="1" source="2INb_UAs3qM7dpsiriRV-41" target="2INb_UAs3qM7dpsiriRV-16">
          <mxGeometry relative="1" as="geometry">
            <mxPoint x="467" y="330" as="sourcePoint" />
            <mxPoint x="326" y="247" as="targetPoint" />
          </mxGeometry>
        </mxCell>
        <mxCell id="2INb_UAs3qM7dpsiriRV-51" style="rounded=0;orthogonalLoop=1;jettySize=auto;html=1;endArrow=ERone;endFill=0;startArrow=ERoneToMany;startFill=0;" edge="1" parent="1" source="2INb_UAs3qM7dpsiriRV-41" target="2INb_UAs3qM7dpsiriRV-4">
          <mxGeometry relative="1" as="geometry">
            <mxPoint x="710" y="400" as="sourcePoint" />
            <mxPoint x="700" y="420" as="targetPoint" />
          </mxGeometry>
        </mxCell>
        <mxCell id="2INb_UAs3qM7dpsiriRV-52" style="rounded=0;orthogonalLoop=1;jettySize=auto;html=1;endArrow=ERone;endFill=0;startArrow=ERone;startFill=0;" edge="1" parent="1" source="2INb_UAs3qM7dpsiriRV-5" target="2INb_UAs3qM7dpsiriRV-15">
          <mxGeometry relative="1" as="geometry">
            <mxPoint x="800" y="385" as="sourcePoint" />
            <mxPoint x="800" y="510" as="targetPoint" />
          </mxGeometry>
        </mxCell>
      </root>
    </mxGraphModel>
  </diagram>
</mxfile>
